%TF.GenerationSoftware,KiCad,Pcbnew,6.0.11+dfsg-1*%
%TF.CreationDate,2023-08-13T13:31:43-04:00*%
%TF.ProjectId,ButtonDip14,42757474-6f6e-4446-9970-31342e6b6963,rev?*%
%TF.SameCoordinates,Original*%
%TF.FileFunction,Copper,L1,Top*%
%TF.FilePolarity,Positive*%
%FSLAX46Y46*%
G04 Gerber Fmt 4.6, Leading zero omitted, Abs format (unit mm)*
G04 Created by KiCad (PCBNEW 6.0.11+dfsg-1) date 2023-08-13 13:31:43*
%MOMM*%
%LPD*%
G01*
G04 APERTURE LIST*
G04 Aperture macros list*
%AMRoundRect*
0 Rectangle with rounded corners*
0 $1 Rounding radius*
0 $2 $3 $4 $5 $6 $7 $8 $9 X,Y pos of 4 corners*
0 Add a 4 corners polygon primitive as box body*
4,1,4,$2,$3,$4,$5,$6,$7,$8,$9,$2,$3,0*
0 Add four circle primitives for the rounded corners*
1,1,$1+$1,$2,$3*
1,1,$1+$1,$4,$5*
1,1,$1+$1,$6,$7*
1,1,$1+$1,$8,$9*
0 Add four rect primitives between the rounded corners*
20,1,$1+$1,$2,$3,$4,$5,0*
20,1,$1+$1,$4,$5,$6,$7,0*
20,1,$1+$1,$6,$7,$8,$9,0*
20,1,$1+$1,$8,$9,$2,$3,0*%
G04 Aperture macros list end*
%TA.AperFunction,SMDPad,CuDef*%
%ADD10RoundRect,0.218750X0.256250X-0.218750X0.256250X0.218750X-0.256250X0.218750X-0.256250X-0.218750X0*%
%TD*%
%TA.AperFunction,SMDPad,CuDef*%
%ADD11RoundRect,0.200000X-0.200000X-0.275000X0.200000X-0.275000X0.200000X0.275000X-0.200000X0.275000X0*%
%TD*%
%TA.AperFunction,SMDPad,CuDef*%
%ADD12RoundRect,0.200000X0.275000X-0.200000X0.275000X0.200000X-0.275000X0.200000X-0.275000X-0.200000X0*%
%TD*%
%TA.AperFunction,SMDPad,CuDef*%
%ADD13RoundRect,0.218750X-0.256250X0.218750X-0.256250X-0.218750X0.256250X-0.218750X0.256250X0.218750X0*%
%TD*%
%TA.AperFunction,SMDPad,CuDef*%
%ADD14RoundRect,0.225000X-0.225000X-0.250000X0.225000X-0.250000X0.225000X0.250000X-0.225000X0.250000X0*%
%TD*%
%TA.AperFunction,SMDPad,CuDef*%
%ADD15RoundRect,0.200000X0.200000X0.275000X-0.200000X0.275000X-0.200000X-0.275000X0.200000X-0.275000X0*%
%TD*%
%TA.AperFunction,SMDPad,CuDef*%
%ADD16RoundRect,0.200000X-0.275000X0.200000X-0.275000X-0.200000X0.275000X-0.200000X0.275000X0.200000X0*%
%TD*%
%TA.AperFunction,SMDPad,CuDef*%
%ADD17RoundRect,0.225000X0.225000X0.250000X-0.225000X0.250000X-0.225000X-0.250000X0.225000X-0.250000X0*%
%TD*%
%TA.AperFunction,ComponentPad*%
%ADD18R,1.700000X1.700000*%
%TD*%
%TA.AperFunction,ComponentPad*%
%ADD19O,1.700000X1.700000*%
%TD*%
%TA.AperFunction,ViaPad*%
%ADD20C,0.800000*%
%TD*%
%TA.AperFunction,Conductor*%
%ADD21C,0.250000*%
%TD*%
G04 APERTURE END LIST*
D10*
%TO.P,D6,1,K*%
%TO.N,/Q6*%
X134285950Y-108717500D03*
%TO.P,D6,2,A*%
%TO.N,/I6*%
X134285950Y-107142500D03*
%TD*%
D11*
%TO.P,R1,1*%
%TO.N,VCC*%
X118368648Y-114554000D03*
%TO.P,R1,2*%
%TO.N,/I1*%
X120018648Y-114554000D03*
%TD*%
D10*
%TO.P,D5,1,K*%
%TO.N,/Q5*%
X131077860Y-108717500D03*
%TO.P,D5,2,A*%
%TO.N,/I5*%
X131077860Y-107142500D03*
%TD*%
D12*
%TO.P,R8,1*%
%TO.N,/Q4*%
X129473815Y-108775000D03*
%TO.P,R8,2*%
%TO.N,/I4*%
X129473815Y-107125000D03*
%TD*%
D10*
%TO.P,D4,1,K*%
%TO.N,/Q4*%
X127869770Y-108717500D03*
%TO.P,D4,2,A*%
%TO.N,/I4*%
X127869770Y-107142500D03*
%TD*%
D13*
%TO.P,D3,1,K*%
%TO.N,/Q3*%
X126225725Y-107182500D03*
%TO.P,D3,2,A*%
%TO.N,/I3*%
X126225725Y-108757500D03*
%TD*%
D12*
%TO.P,R12,1*%
%TO.N,/Q6*%
X135890000Y-108775000D03*
%TO.P,R12,2*%
%TO.N,/I6*%
X135890000Y-107125000D03*
%TD*%
D14*
%TO.P,C3,1*%
%TO.N,/Q3*%
X134012568Y-114554000D03*
%TO.P,C3,2*%
%TO.N,GND*%
X135562568Y-114554000D03*
%TD*%
D15*
%TO.P,R5,1*%
%TO.N,VCC*%
X132493784Y-114554000D03*
%TO.P,R5,2*%
%TO.N,/I3*%
X130843784Y-114554000D03*
%TD*%
D16*
%TO.P,R6,1*%
%TO.N,/Q3*%
X124621680Y-107125000D03*
%TO.P,R6,2*%
%TO.N,/I3*%
X124621680Y-108775000D03*
%TD*%
D17*
%TO.P,C4,1*%
%TO.N,/Q4*%
X123152200Y-101346000D03*
%TO.P,C4,2*%
%TO.N,GND*%
X121602200Y-101346000D03*
%TD*%
%TO.P,C1,1*%
%TO.N,/Q1*%
X123087432Y-114554000D03*
%TO.P,C1,2*%
%TO.N,GND*%
X121537432Y-114554000D03*
%TD*%
D18*
%TO.P,J2,1,Pin_1*%
%TO.N,/I1*%
X119340000Y-111760000D03*
D19*
%TO.P,J2,2,Pin_2*%
%TO.N,/Q1*%
X121880000Y-111760000D03*
%TO.P,J2,3,Pin_3*%
%TO.N,/I2*%
X124420000Y-111760000D03*
%TO.P,J2,4,Pin_4*%
%TO.N,/Q2*%
X126960000Y-111760000D03*
%TO.P,J2,5,Pin_5*%
%TO.N,/I3*%
X129500000Y-111760000D03*
%TO.P,J2,6,Pin_6*%
%TO.N,/Q3*%
X132040000Y-111760000D03*
%TO.P,J2,7,Pin_7*%
%TO.N,GND*%
X134580000Y-111760000D03*
%TD*%
D18*
%TO.P,J1,1,Pin_1*%
%TO.N,VCC*%
X119375000Y-104140000D03*
D19*
%TO.P,J1,2,Pin_2*%
%TO.N,/I4*%
X121915000Y-104140000D03*
%TO.P,J1,3,Pin_3*%
%TO.N,/Q4*%
X124455000Y-104140000D03*
%TO.P,J1,4,Pin_4*%
%TO.N,/I5*%
X126995000Y-104140000D03*
%TO.P,J1,5,Pin_5*%
%TO.N,/Q5*%
X129535000Y-104140000D03*
%TO.P,J1,6,Pin_6*%
%TO.N,/I6*%
X132075000Y-104140000D03*
%TO.P,J1,7,Pin_7*%
%TO.N,/Q6*%
X134615000Y-104140000D03*
%TD*%
D12*
%TO.P,R10,1*%
%TO.N,/Q5*%
X132681905Y-108775000D03*
%TO.P,R10,2*%
%TO.N,/I5*%
X132681905Y-107125000D03*
%TD*%
D14*
%TO.P,C2,1*%
%TO.N,/Q2*%
X127775000Y-114554000D03*
%TO.P,C2,2*%
%TO.N,GND*%
X129325000Y-114554000D03*
%TD*%
D11*
%TO.P,R11,1*%
%TO.N,VCC*%
X130848600Y-101346000D03*
%TO.P,R11,2*%
%TO.N,/I6*%
X132498600Y-101346000D03*
%TD*%
D13*
%TO.P,D2,1,K*%
%TO.N,/Q2*%
X123017635Y-107182500D03*
%TO.P,D2,2,A*%
%TO.N,/I2*%
X123017635Y-108757500D03*
%TD*%
D17*
%TO.P,C6,1*%
%TO.N,/Q6*%
X135547400Y-101346000D03*
%TO.P,C6,2*%
%TO.N,GND*%
X133997400Y-101346000D03*
%TD*%
D16*
%TO.P,R4,1*%
%TO.N,/Q2*%
X121413590Y-107125000D03*
%TO.P,R4,2*%
%TO.N,/I2*%
X121413590Y-108775000D03*
%TD*%
D11*
%TO.P,R9,1*%
%TO.N,VCC*%
X124651000Y-101346000D03*
%TO.P,R9,2*%
%TO.N,/I5*%
X126301000Y-101346000D03*
%TD*%
%TO.P,R3,1*%
%TO.N,VCC*%
X124606216Y-114554000D03*
%TO.P,R3,2*%
%TO.N,/I2*%
X126256216Y-114554000D03*
%TD*%
D16*
%TO.P,R2,1*%
%TO.N,/Q1*%
X118205500Y-107125000D03*
%TO.P,R2,2*%
%TO.N,/I1*%
X118205500Y-108775000D03*
%TD*%
D17*
%TO.P,C5,1*%
%TO.N,/Q5*%
X129349800Y-101346000D03*
%TO.P,C5,2*%
%TO.N,GND*%
X127799800Y-101346000D03*
%TD*%
D13*
%TO.P,D1,1,K*%
%TO.N,/Q1*%
X119809545Y-107182500D03*
%TO.P,D1,2,A*%
%TO.N,/I1*%
X119809545Y-108757500D03*
%TD*%
D11*
%TO.P,R7,1*%
%TO.N,VCC*%
X118453400Y-101346000D03*
%TO.P,R7,2*%
%TO.N,/I4*%
X120103400Y-101346000D03*
%TD*%
D20*
%TO.N,GND*%
X133477000Y-102616000D03*
X128270000Y-102489000D03*
X121539000Y-102489000D03*
X120904000Y-113627500D03*
X128270000Y-113500500D03*
%TO.N,VCC*%
X132334000Y-113284000D03*
X118364000Y-113284000D03*
X124465000Y-113281500D03*
X130810000Y-102616000D03*
X124460000Y-102616000D03*
X118364000Y-102616000D03*
%TD*%
D21*
%TO.N,GND*%
X121602200Y-101346000D02*
X121602200Y-102425800D01*
X121602200Y-102425800D02*
X121539000Y-102489000D01*
X127799800Y-101346000D02*
X127799800Y-102018800D01*
X127799800Y-102018800D02*
X128270000Y-102489000D01*
X133997400Y-101346000D02*
X133997400Y-102095600D01*
X133997400Y-102095600D02*
X133477000Y-102616000D01*
X121537432Y-114554000D02*
X121537432Y-114260932D01*
X121537432Y-114260932D02*
X120904000Y-113627500D01*
X128271500Y-113500500D02*
X128270000Y-113500500D01*
X129325000Y-114554000D02*
X128271500Y-113500500D01*
X135562568Y-114554000D02*
X135562568Y-112742568D01*
X135562568Y-112742568D02*
X134580000Y-111760000D01*
X121537432Y-114554000D02*
X121537432Y-114171432D01*
%TO.N,VCC*%
X118364000Y-113284000D02*
X117405500Y-112325500D01*
X117405500Y-106109500D02*
X119375000Y-104140000D01*
X117405500Y-112325500D02*
X117405500Y-106109500D01*
%TO.N,/Q6*%
X135890000Y-108775000D02*
X136690000Y-107975000D01*
X136690000Y-107975000D02*
X136690000Y-106215000D01*
X136690000Y-106215000D02*
X134615000Y-104140000D01*
%TO.N,/I6*%
X134285950Y-107142500D02*
X134285950Y-106350950D01*
X134285950Y-106350950D02*
X132075000Y-104140000D01*
%TO.N,/Q5*%
X132681905Y-108775000D02*
X133481905Y-107975000D01*
X133481905Y-107975000D02*
X133481905Y-106707538D01*
X133481905Y-106707538D02*
X132089367Y-105315000D01*
X132089367Y-105315000D02*
X130710000Y-105315000D01*
X130710000Y-105315000D02*
X129535000Y-104140000D01*
%TO.N,/Q4*%
X125630000Y-105315000D02*
X124455000Y-104140000D01*
X127534310Y-105315000D02*
X125630000Y-105315000D01*
X129966277Y-106400000D02*
X128619310Y-106400000D01*
X130273815Y-106707538D02*
X129966277Y-106400000D01*
X130273815Y-107975000D02*
X130273815Y-106707538D01*
%TO.N,/I5*%
X130152466Y-105950499D02*
X128805499Y-105950499D01*
%TO.N,/Q4*%
X129473815Y-108775000D02*
X130273815Y-107975000D01*
X128619310Y-106400000D02*
X127534310Y-105315000D01*
%TO.N,/I5*%
X131077860Y-107142500D02*
X131077860Y-106875893D01*
X128805499Y-105950499D02*
X126995000Y-104140000D01*
X131077860Y-106875893D02*
X130152466Y-105950499D01*
%TO.N,/I4*%
X123539501Y-105764501D02*
X121915000Y-104140000D01*
X126491771Y-105764501D02*
X123539501Y-105764501D01*
X127869770Y-107142500D02*
X126491771Y-105764501D01*
%TO.N,/Q3*%
X128493291Y-110585000D02*
X130865000Y-110585000D01*
X130865000Y-110585000D02*
X132040000Y-111760000D01*
X127069770Y-109161479D02*
X128493291Y-110585000D01*
X127069770Y-108026545D02*
X127069770Y-109161479D01*
X126225725Y-107182500D02*
X127069770Y-108026545D01*
%TO.N,/I3*%
X129032601Y-111760000D02*
X129500000Y-111760000D01*
X126225725Y-108953124D02*
X129032601Y-111760000D01*
X126225725Y-108757500D02*
X126225725Y-108953124D01*
%TO.N,/Q2*%
X123017635Y-107182500D02*
X123817635Y-107982500D01*
X123817635Y-109339635D02*
X126238000Y-111760000D01*
X123817635Y-107982500D02*
X123817635Y-109339635D01*
X126238000Y-111760000D02*
X126960000Y-111760000D01*
%TO.N,/I2*%
X123017635Y-108757500D02*
X123017635Y-110357635D01*
X123017635Y-110357635D02*
X124420000Y-111760000D01*
%TO.N,/Q1*%
X119809545Y-107182500D02*
X120609545Y-107982500D01*
X120609545Y-110489545D02*
X121880000Y-111760000D01*
X120609545Y-107982500D02*
X120609545Y-110489545D01*
%TO.N,/I1*%
X119809545Y-108757500D02*
X119340000Y-109227045D01*
X119340000Y-109227045D02*
X119340000Y-111760000D01*
X119809545Y-108757500D02*
X118223000Y-108757500D01*
X118223000Y-108757500D02*
X118205500Y-108775000D01*
%TO.N,/Q1*%
X119809545Y-107182500D02*
X118263000Y-107182500D01*
X118263000Y-107182500D02*
X118205500Y-107125000D01*
%TO.N,/Q2*%
X123017635Y-107182500D02*
X121471090Y-107182500D01*
X121471090Y-107182500D02*
X121413590Y-107125000D01*
%TO.N,/I2*%
X123017635Y-108757500D02*
X121431090Y-108757500D01*
X121431090Y-108757500D02*
X121413590Y-108775000D01*
%TO.N,/I3*%
X126225725Y-108757500D02*
X124639180Y-108757500D01*
X124639180Y-108757500D02*
X124621680Y-108775000D01*
%TO.N,/Q3*%
X126225725Y-107182500D02*
X124679180Y-107182500D01*
X124679180Y-107182500D02*
X124621680Y-107125000D01*
%TO.N,/Q4*%
X129473815Y-108775000D02*
X127927270Y-108775000D01*
X127927270Y-108775000D02*
X127869770Y-108717500D01*
%TO.N,/I4*%
X129473815Y-107125000D02*
X127887270Y-107125000D01*
X127887270Y-107125000D02*
X127869770Y-107142500D01*
%TO.N,/Q5*%
X132681905Y-108775000D02*
X131135360Y-108775000D01*
X131135360Y-108775000D02*
X131077860Y-108717500D01*
%TO.N,/I5*%
X132681905Y-107125000D02*
X131095360Y-107125000D01*
X131095360Y-107125000D02*
X131077860Y-107142500D01*
%TO.N,/Q6*%
X135890000Y-108775000D02*
X134343450Y-108775000D01*
X134343450Y-108775000D02*
X134285950Y-108717500D01*
%TO.N,/I6*%
X135890000Y-107125000D02*
X134303450Y-107125000D01*
X134303450Y-107125000D02*
X134285950Y-107142500D01*
%TO.N,VCC*%
X118368648Y-114554000D02*
X118368648Y-113288648D01*
X118368648Y-113288648D02*
X118364000Y-113284000D01*
X124606216Y-114554000D02*
X124606216Y-113422716D01*
X124606216Y-113422716D02*
X124465000Y-113281500D01*
X132493784Y-114554000D02*
X132493784Y-113443784D01*
X132493784Y-113443784D02*
X132334000Y-113284000D01*
%TO.N,/Q3*%
X134012568Y-114554000D02*
X134012568Y-113732568D01*
X134012568Y-113732568D02*
X132040000Y-111760000D01*
%TO.N,/I3*%
X130843784Y-114554000D02*
X130843784Y-113103784D01*
X130843784Y-113103784D02*
X129500000Y-111760000D01*
%TO.N,/Q2*%
X127775000Y-114554000D02*
X126960000Y-113739000D01*
X126960000Y-113739000D02*
X126960000Y-111760000D01*
%TO.N,/I2*%
X126256216Y-114554000D02*
X126256216Y-113596216D01*
X126256216Y-113596216D02*
X124420000Y-111760000D01*
%TO.N,/Q1*%
X123087432Y-114554000D02*
X123087432Y-112967432D01*
X123087432Y-112967432D02*
X121880000Y-111760000D01*
%TO.N,/I1*%
X120018648Y-114554000D02*
X119340000Y-113875352D01*
X119340000Y-113875352D02*
X119340000Y-111760000D01*
%TO.N,VCC*%
X124651000Y-101346000D02*
X124651000Y-102425000D01*
X124651000Y-102425000D02*
X124460000Y-102616000D01*
X130848600Y-101346000D02*
X130848600Y-102577400D01*
X130848600Y-102577400D02*
X130810000Y-102616000D01*
X118453400Y-101346000D02*
X118453400Y-102526600D01*
X118453400Y-102526600D02*
X118364000Y-102616000D01*
%TO.N,/I4*%
X120103400Y-101346000D02*
X120103400Y-102328400D01*
X120103400Y-102328400D02*
X121915000Y-104140000D01*
%TO.N,/Q4*%
X123152200Y-101346000D02*
X123152200Y-102837200D01*
X123152200Y-102837200D02*
X124455000Y-104140000D01*
%TO.N,/I5*%
X126995000Y-104140000D02*
X126995000Y-102040000D01*
X126995000Y-102040000D02*
X126301000Y-101346000D01*
%TO.N,/Q6*%
X135547400Y-101346000D02*
X135547400Y-103207600D01*
X135547400Y-103207600D02*
X134615000Y-104140000D01*
%TO.N,/Q5*%
X129349800Y-101346000D02*
X129535000Y-101531200D01*
X129535000Y-101531200D02*
X129535000Y-104140000D01*
%TO.N,/I6*%
X132498600Y-101346000D02*
X132075000Y-101769600D01*
X132075000Y-101769600D02*
X132075000Y-104140000D01*
%TD*%
M02*
